<svg width="2158" height="523" viewBox="0 0 2158 523" fill="none" xmlns="http://www.w3.org/2000/svg">
<path d="M386.64 85.26V102.83C386.64 104.63 385.18 106.09 383.38 106.09H372.4C370.6 106.09 369.14 104.63 369.14 102.83V85.26C369.14 83.46 367.68 82 365.88 82H345.69C343.89 82 342.43 83.46 342.43 85.26V102.83C342.43 104.63 340.97 106.09 339.17 106.09H328.94C327.14 106.09 325.68 104.63 325.68 102.83V85.26C325.68 83.46 324.22 82 322.42 82H310.03C308.23 82 306.77 83.46 306.77 85.26V137.64C306.77 138.44 307.06 139.21 307.59 139.8L324.86 159.28C325.39 159.88 325.68 160.65 325.68 161.44V232.69C325.68 234.49 324.22 235.95 322.42 235.95H310.03C308.23 235.95 306.77 234.49 306.77 232.69V215.92C306.77 214.12 305.31 212.66 303.51 212.66H267.68C265.88 212.66 264.42 214.12 264.42 215.92V232.69C264.42 234.49 262.96 235.95 261.16 235.95H236.49C234.69 235.95 233.23 234.49 233.23 232.69V215.92C233.23 214.12 231.77 212.66 229.97 212.66H194.14C192.34 212.66 190.88 214.12 190.88 215.92V232.69C190.88 234.49 189.42 235.95 187.62 235.95H175.23C173.43 235.95 171.97 234.49 171.97 232.69V161.44C171.97 160.64 172.26 159.87 172.79 159.28L190.06 139.8C190.59 139.2 190.88 138.43 190.88 137.64V85.26C190.88 83.46 189.42 82 187.62 82H175.23C173.43 82 171.97 83.46 171.97 85.26V102.83C171.97 104.63 170.51 106.09 168.71 106.09H158.48C156.68 106.09 155.22 104.63 155.22 102.83V85.26C155.22 83.46 153.76 82 151.96 82H131.77C129.97 82 128.51 83.46 128.51 85.26V102.83C128.51 104.63 127.05 106.09 125.25 106.09H114.27C112.47 106.09 111.01 104.63 111.01 102.83V85.26C111.01 83.46 109.55 82 107.75 82H95.26C93.46 82 92 83.46 92 85.26V137.64C92 138.44 92.29 139.21 92.83 139.81L110.19 159.29C110.72 159.89 111.02 160.66 111.02 161.46V362.64H212.18V330.13C212.18 318.33 216.13 307.23 222.81 300.43C222.86 300.38 222.91 300.33 222.96 300.28C233.32 289.85 244.04 288.7 248.81 288.64C253.58 288.71 264.3 289.85 274.66 300.28C274.71 300.33 274.76 300.38 274.81 300.43C281.5 307.23 285.44 318.33 285.44 330.13V362.64H386.6V161.46C386.6 160.66 386.89 159.89 387.43 159.29L404.79 139.81C405.32 139.21 405.62 138.44 405.62 137.64V85.26C405.62 83.46 404.16 82 402.36 82H389.87C388.07 82 386.61 83.46 386.61 85.26H386.64ZM151.99 235.95H131.8C130 235.95 128.54 234.49 128.54 232.69V203.04C128.54 202.54 128.65 202.06 128.87 201.61C130.07 199.19 134.39 191.64 141.74 191.54C149.22 191.44 153.67 199.12 154.9 201.59C155.13 202.04 155.24 202.54 155.24 203.05V232.69C155.24 234.49 153.78 235.95 151.98 235.95H151.99ZM365.88 235.95H345.69C343.89 235.95 342.43 234.49 342.43 232.69V203.05C342.43 202.54 342.55 202.05 342.77 201.59C344 199.12 348.45 191.44 355.93 191.54C363.28 191.64 367.6 199.19 368.8 201.61C369.02 202.06 369.13 202.54 369.13 203.04V232.69C369.13 234.49 367.67 235.95 365.87 235.95H365.88Z" fill="#FFB400"/>
<path d="M521.015 362.619L462.247 234.651V336.263C462.247 345.609 463.256 351.441 465.275 353.759C468.041 356.899 472.415 358.469 478.397 358.469H483.78V362.619H430.844V358.469H436.227C442.657 358.469 447.218 356.525 449.91 352.637C451.555 350.245 452.377 344.787 452.377 336.263V236.894C452.377 230.165 451.629 225.305 450.134 222.314C449.087 220.146 447.143 218.352 444.302 216.931C441.536 215.436 437.049 214.688 430.844 214.688V210.538H473.911L529.09 329.534L583.373 210.538H626.44V214.688H621.169C614.664 214.688 610.066 216.632 607.374 220.52C605.729 222.913 604.907 228.371 604.907 236.894V336.263C604.907 345.609 605.953 351.441 608.047 353.759C610.813 356.899 615.187 358.469 621.169 358.469H626.44V362.619H561.839V358.469H567.223C573.728 358.469 578.289 356.525 580.906 352.637C582.551 350.245 583.373 344.787 583.373 336.263V234.651L524.716 362.619H521.015ZM632.734 258.843H681.11V263.035H678.731C675.333 263.035 672.765 263.79 671.027 265.301C669.366 266.736 668.535 268.548 668.535 270.739C668.535 273.684 669.781 277.763 672.274 282.974L697.538 335.316L720.763 277.989C722.047 274.893 722.689 271.834 722.689 268.813C722.689 267.453 722.425 266.434 721.896 265.754C721.292 264.923 720.347 264.281 719.063 263.828C717.78 263.299 715.514 263.035 712.266 263.035V258.843H746.027V263.035C743.233 263.337 741.08 263.941 739.569 264.848C738.059 265.754 736.397 267.453 734.585 269.946C733.905 271.003 732.621 273.911 730.733 278.669L688.474 382.219C684.396 392.264 679.033 399.855 672.387 404.991C665.816 410.127 659.472 412.695 653.354 412.695C648.898 412.695 645.234 411.411 642.364 408.843C639.494 406.275 638.059 403.329 638.059 400.006C638.059 396.834 639.079 394.266 641.118 392.302C643.233 390.414 646.103 389.47 649.728 389.47C652.221 389.47 655.62 390.3 659.925 391.962C662.946 393.095 664.834 393.661 665.589 393.661C667.855 393.661 670.31 392.491 672.953 390.149C675.672 387.808 678.391 383.276 681.11 376.554L688.474 358.541L651.201 280.255C650.068 277.914 648.256 275.006 645.763 271.532C643.875 268.888 642.327 267.113 641.118 266.207C639.381 264.999 636.586 263.941 632.734 263.035V258.843ZM945.082 205.482L948.594 257.71H945.082C940.4 242.076 933.715 230.822 925.03 223.949C916.344 217.076 905.921 213.639 893.761 213.639C883.564 213.639 874.35 216.245 866.117 221.456C857.885 226.592 851.389 234.825 846.631 246.154C841.948 257.484 839.607 271.57 839.607 288.412C839.607 302.31 841.835 314.356 846.291 324.553C850.747 334.749 857.432 342.566 866.344 348.004C875.332 353.442 885.566 356.161 897.046 356.161C907.016 356.161 915.815 354.047 923.444 349.817C931.072 345.512 939.456 337.015 948.594 324.326L952.107 326.592C944.403 340.263 935.415 350.27 925.143 356.615C914.871 362.959 902.673 366.131 888.549 366.131C863.096 366.131 843.383 356.69 829.411 337.808C818.988 323.76 813.776 307.219 813.776 288.186C813.776 272.854 817.213 258.768 824.086 245.928C830.959 233.088 840.4 223.156 852.409 216.132C864.494 209.032 877.673 205.482 891.948 205.482C903.051 205.482 914.002 208.201 924.803 213.639C927.975 215.301 930.241 216.132 931.601 216.132C933.64 216.132 935.415 215.414 936.925 213.979C938.889 211.94 940.286 209.108 941.117 205.482H945.082ZM1026.2 347.665C1015.55 355.897 1008.87 360.655 1006.15 361.939C1002.07 363.828 997.726 364.772 993.119 364.772C985.943 364.772 980.014 362.317 975.332 357.408C970.724 352.498 968.421 346.041 968.421 338.035C968.421 332.974 969.554 328.594 971.819 324.893C974.916 319.757 980.279 314.923 987.907 310.391C995.611 305.86 1008.38 300.346 1026.2 293.85V289.772C1026.2 279.425 1024.54 272.325 1021.22 268.473C1017.97 264.621 1013.21 262.695 1006.94 262.695C1002.18 262.695 998.405 263.979 995.611 266.547C992.741 269.115 991.306 272.061 991.306 275.384L991.532 281.955C991.532 285.429 990.626 288.11 988.813 289.999C987.076 291.887 984.773 292.831 981.903 292.831C979.108 292.831 976.804 291.849 974.992 289.885C973.255 287.921 972.386 285.24 972.386 281.841C972.386 275.346 975.709 269.379 982.356 263.941C989.002 258.503 998.33 255.784 1010.34 255.784C1019.55 255.784 1027.11 257.332 1033 260.429C1037.45 262.771 1040.74 266.434 1042.85 271.419C1044.21 274.666 1044.89 281.313 1044.89 291.358V326.592C1044.89 336.486 1045.08 342.566 1045.46 344.832C1045.84 347.023 1046.44 348.495 1047.27 349.251C1048.18 350.006 1049.2 350.384 1050.33 350.384C1051.54 350.384 1052.6 350.119 1053.5 349.59C1055.09 348.609 1058.15 345.852 1062.68 341.32V347.665C1054.22 358.994 1046.14 364.658 1038.44 364.658C1034.73 364.658 1031.79 363.374 1029.6 360.806C1027.41 358.238 1026.28 353.858 1026.2 347.665ZM1026.2 340.3V300.761C1014.8 305.293 1007.43 308.503 1004.11 310.391C998.141 313.714 993.874 317.189 991.306 320.814C988.738 324.44 987.454 328.405 987.454 332.71C987.454 338.148 989.078 342.68 992.325 346.305C995.573 349.855 999.312 351.63 1003.54 351.63C1009.28 351.63 1016.83 347.853 1026.2 340.3ZM1137.57 255.784V291.131H1133.83C1130.96 280.029 1127.26 272.476 1122.73 268.473C1118.27 264.47 1112.57 262.468 1105.62 262.468C1100.33 262.468 1096.06 263.866 1092.82 266.66C1089.57 269.455 1087.94 272.551 1087.94 275.95C1087.94 280.18 1089.15 283.805 1091.57 286.826C1093.91 289.923 1098.67 293.208 1105.84 296.683L1122.39 304.727C1137.72 312.204 1145.38 322.06 1145.38 334.296C1145.38 343.737 1141.8 351.365 1134.62 357.181C1127.52 362.921 1119.55 365.791 1110.72 365.791C1104.37 365.791 1097.12 364.658 1088.96 362.393C1086.47 361.637 1084.43 361.26 1082.85 361.26C1081.11 361.26 1079.75 362.241 1078.77 364.205H1075.03V327.159H1078.77C1080.88 337.733 1084.92 345.701 1090.89 351.063C1096.86 356.426 1103.54 359.107 1110.94 359.107C1116.15 359.107 1120.38 357.596 1123.63 354.575C1126.95 351.479 1128.62 347.778 1128.62 343.473C1128.62 338.261 1126.77 333.881 1123.07 330.331C1119.44 326.781 1112.15 322.287 1101.2 316.849C1090.25 311.411 1083.07 306.501 1079.67 302.121C1076.28 297.816 1074.58 292.378 1074.58 285.807C1074.58 277.272 1077.48 270.135 1083.3 264.394C1089.19 258.654 1096.78 255.784 1106.07 255.784C1110.15 255.784 1115.1 256.653 1120.91 258.39C1124.76 259.523 1127.33 260.089 1128.62 260.089C1129.83 260.089 1130.77 259.825 1131.45 259.296C1132.13 258.768 1132.92 257.597 1133.83 255.784H1137.57ZM1191.04 224.742V258.843H1215.29V266.774H1191.04V334.069C1191.04 340.791 1191.98 345.323 1193.87 347.665C1195.84 350.006 1198.33 351.177 1201.35 351.177C1203.84 351.177 1206.26 350.421 1208.6 348.911C1210.94 347.325 1212.76 345.021 1214.04 342H1218.46C1215.81 349.402 1212.08 354.991 1207.24 358.767C1202.41 362.468 1197.42 364.319 1192.29 364.319C1188.81 364.319 1185.41 363.374 1182.09 361.486C1178.77 359.522 1176.31 356.766 1174.73 353.216C1173.14 349.59 1172.35 344.039 1172.35 336.562V266.774H1155.92V263.035C1160.07 261.373 1164.3 258.579 1168.61 254.651C1172.99 250.648 1176.88 245.928 1180.28 240.49C1182.02 237.62 1184.43 232.37 1187.53 224.742H1191.04ZM1261.17 201.517V339.168C1261.17 345.663 1261.62 349.968 1262.53 352.083C1263.51 354.198 1264.98 355.822 1266.95 356.955C1268.91 358.012 1272.57 358.541 1277.94 358.541V362.619H1227.07V358.541C1231.83 358.541 1235.07 358.05 1236.81 357.068C1238.55 356.086 1239.91 354.462 1240.89 352.196C1241.87 349.93 1242.36 345.587 1242.36 339.168V244.908C1242.36 233.201 1242.1 226.026 1241.57 223.382C1241.04 220.663 1240.17 218.813 1238.96 217.831C1237.83 216.849 1236.36 216.358 1234.55 216.358C1232.58 216.358 1230.09 216.963 1227.07 218.171L1225.14 214.206L1256.07 201.517H1261.17ZM1307.51 297.929C1307.43 313.337 1311.17 325.421 1318.72 334.183C1326.27 342.944 1335.15 347.325 1345.35 347.325C1352.14 347.325 1358.03 345.474 1363.02 341.773C1368.08 337.997 1372.31 331.577 1375.71 322.514L1379.22 324.779C1377.63 335.127 1373.03 344.568 1365.4 353.103C1357.77 361.562 1348.22 365.791 1336.74 365.791C1324.27 365.791 1313.59 360.958 1304.67 351.29C1295.84 341.547 1291.42 328.48 1291.42 312.091C1291.42 294.341 1295.95 280.52 1305.01 270.625C1314.15 260.656 1325.59 255.671 1339.34 255.671C1350.97 255.671 1360.53 259.523 1368 267.227C1375.48 274.855 1379.22 285.089 1379.22 297.929H1307.51ZM1307.51 291.358H1355.54C1355.16 284.712 1354.37 280.029 1353.16 277.31C1351.27 273.08 1348.44 269.757 1344.67 267.34C1340.96 264.923 1337.08 263.715 1333 263.715C1326.73 263.715 1321.1 266.169 1316.12 271.079C1311.21 275.912 1308.34 282.672 1307.51 291.358ZM1491.61 280.255H1562.98V236.298C1562.98 228.443 1562.49 223.269 1561.51 220.777C1560.75 218.888 1559.17 217.265 1556.75 215.905C1553.5 214.092 1550.07 213.186 1546.44 213.186H1541V208.994H1606.71V213.186H1601.27C1597.65 213.186 1594.21 214.055 1590.96 215.792C1588.55 217 1586.89 218.851 1585.98 221.343C1585.15 223.76 1584.73 228.745 1584.73 236.298V335.429C1584.73 343.208 1585.22 348.344 1586.21 350.837C1586.96 352.725 1588.51 354.349 1590.85 355.708C1594.17 357.521 1597.65 358.427 1601.27 358.427H1606.71V362.619H1541V358.427H1546.44C1552.71 358.427 1557.28 356.577 1560.15 352.876C1562.04 350.459 1562.98 344.643 1562.98 335.429V288.639H1491.61V335.429C1491.61 343.208 1492.1 348.344 1493.08 350.837C1493.83 352.725 1495.42 354.349 1497.84 355.708C1501.09 357.521 1504.52 358.427 1508.15 358.427H1513.7V362.619H1447.88V358.427H1453.31C1459.66 358.427 1464.27 356.577 1467.14 352.876C1468.95 350.459 1469.85 344.643 1469.85 335.429V236.298C1469.85 228.443 1469.36 223.269 1468.38 220.777C1467.63 218.888 1466.08 217.265 1463.74 215.905C1460.41 214.092 1456.94 213.186 1453.31 213.186H1447.88V208.994H1513.7V213.186H1508.15C1504.52 213.186 1501.09 214.055 1497.84 215.792C1495.5 217 1493.87 218.851 1492.97 221.343C1492.06 223.76 1491.61 228.745 1491.61 236.298V280.255ZM1669.59 255.784C1685.3 255.784 1697.91 261.751 1707.43 273.684C1715.51 283.881 1719.55 295.588 1719.55 308.805C1719.55 318.095 1717.32 327.498 1712.87 337.015C1708.41 346.532 1702.26 353.707 1694.4 358.541C1686.62 363.374 1677.94 365.791 1668.34 365.791C1652.71 365.791 1640.28 359.56 1631.07 347.098C1623.29 336.6 1619.4 324.817 1619.4 311.751C1619.4 302.234 1621.74 292.793 1626.42 283.428C1631.18 273.986 1637.41 267.038 1645.12 262.582C1652.82 258.05 1660.98 255.784 1669.59 255.784ZM1666.08 263.148C1662.07 263.148 1658.03 264.357 1653.95 266.774C1649.95 269.115 1646.7 273.269 1644.21 279.236C1641.72 285.202 1640.47 292.869 1640.47 302.234C1640.47 317.34 1643.46 330.368 1649.42 341.32C1655.47 352.272 1663.4 357.748 1673.21 357.748C1680.54 357.748 1686.58 354.726 1691.34 348.684C1696.1 342.642 1698.48 332.257 1698.48 317.529C1698.48 299.1 1694.51 284.598 1686.58 274.024C1681.22 266.774 1674.39 263.148 1666.08 263.148ZM1765.66 277.876C1773.21 270.323 1777.67 265.98 1779.03 264.848C1782.43 261.977 1786.09 259.749 1790.02 258.163C1793.95 256.577 1797.84 255.784 1801.69 255.784C1808.18 255.784 1813.77 257.672 1818.46 261.449C1823.14 265.225 1826.27 270.701 1827.86 277.876C1835.64 268.813 1842.21 262.884 1847.57 260.089C1852.93 257.219 1858.45 255.784 1864.11 255.784C1869.63 255.784 1874.5 257.219 1878.73 260.089C1883.03 262.884 1886.43 267.491 1888.92 273.911C1890.59 278.292 1891.42 285.165 1891.42 294.53V339.168C1891.42 345.663 1891.91 350.119 1892.89 352.536C1893.64 354.198 1895.04 355.633 1897.08 356.841C1899.12 357.974 1902.44 358.541 1907.05 358.541V362.619H1855.84V358.541H1857.99C1862.45 358.541 1865.93 357.672 1868.42 355.935C1870.16 354.726 1871.4 352.8 1872.16 350.157C1872.46 348.873 1872.61 345.21 1872.61 339.168V294.53C1872.61 286.071 1871.59 280.104 1869.55 276.63C1866.61 271.796 1861.88 269.379 1855.39 269.379C1851.39 269.379 1847.35 270.399 1843.27 272.438C1839.26 274.402 1834.39 278.103 1828.65 283.541L1828.43 284.787L1828.65 289.659V339.168C1828.65 346.267 1829.03 350.686 1829.79 352.423C1830.62 354.16 1832.13 355.633 1834.32 356.841C1836.51 357.974 1840.25 358.541 1845.53 358.541V362.619H1793.08V358.541C1798.82 358.541 1802.75 357.861 1804.86 356.501C1807.05 355.142 1808.56 353.103 1809.39 350.384C1809.77 349.1 1809.96 345.361 1809.96 339.168V294.53C1809.96 286.071 1808.71 279.991 1806.22 276.29C1802.9 271.456 1798.25 269.039 1792.29 269.039C1788.21 269.039 1784.17 270.135 1780.16 272.325C1773.89 275.648 1769.06 279.387 1765.66 283.541V339.168C1765.66 345.965 1766.11 350.384 1767.02 352.423C1768 354.462 1769.4 356.01 1771.21 357.068C1773.1 358.05 1776.88 358.541 1782.54 358.541V362.619H1731.22V358.541C1735.98 358.541 1739.3 358.05 1741.19 357.068C1743.08 356.01 1744.51 354.387 1745.5 352.196C1746.48 349.93 1746.97 345.587 1746.97 339.168V299.515C1746.97 288.11 1746.63 280.746 1745.95 277.423C1745.42 274.931 1744.59 273.231 1743.46 272.325C1742.32 271.343 1740.77 270.852 1738.81 270.852C1736.7 270.852 1734.17 271.419 1731.22 272.551L1729.52 268.473L1760.79 255.784H1765.66V277.876ZM1932.88 297.929C1932.81 313.337 1936.54 325.421 1944.1 334.183C1951.65 342.944 1960.52 347.325 1970.72 347.325C1977.52 347.325 1983.41 345.474 1988.39 341.773C1993.46 337.997 1997.68 331.577 2001.08 322.514L2004.6 324.779C2003.01 335.127 1998.4 344.568 1990.77 353.103C1983.15 361.562 1973.59 365.791 1962.11 365.791C1949.65 365.791 1938.96 360.958 1930.05 351.29C1921.21 341.547 1916.79 328.48 1916.79 312.091C1916.79 294.341 1921.33 280.52 1930.39 270.625C1939.53 260.656 1950.97 255.671 1964.72 255.671C1976.35 255.671 1985.9 259.523 1993.38 267.227C2000.86 274.855 2004.6 285.089 2004.6 297.929H1932.88ZM1932.88 291.358H1980.92C1980.54 284.712 1979.75 280.029 1978.54 277.31C1976.65 273.08 1973.82 269.757 1970.04 267.34C1966.34 264.923 1962.45 263.715 1958.37 263.715C1952.1 263.715 1946.48 266.169 1941.49 271.079C1936.58 275.912 1933.71 282.672 1932.88 291.358ZM2085.6 255.784V291.131H2081.86C2078.99 280.029 2075.29 272.476 2070.76 268.473C2066.3 264.47 2060.6 262.468 2053.65 262.468C2048.36 262.468 2044.1 263.866 2040.85 266.66C2037.6 269.455 2035.98 272.551 2035.98 275.95C2035.98 280.18 2037.19 283.805 2039.6 286.826C2041.94 289.923 2046.7 293.208 2053.88 296.683L2070.42 304.727C2085.75 312.204 2093.42 322.06 2093.42 334.296C2093.42 343.737 2089.83 351.365 2082.65 357.181C2075.55 362.921 2067.59 365.791 2058.75 365.791C2052.41 365.791 2045.15 364.658 2037 362.393C2034.51 361.637 2032.47 361.26 2030.88 361.26C2029.14 361.26 2027.78 362.241 2026.8 364.205H2023.06V327.159H2026.8C2028.92 337.733 2032.96 345.701 2038.92 351.063C2044.89 356.426 2051.57 359.107 2058.98 359.107C2064.19 359.107 2068.42 357.596 2071.67 354.575C2074.99 351.479 2076.65 347.778 2076.65 343.473C2076.65 338.261 2074.8 333.881 2071.1 330.331C2067.47 326.781 2060.18 322.287 2049.23 316.849C2038.28 311.411 2031.11 306.501 2027.71 302.121C2024.31 297.816 2022.61 292.378 2022.61 285.807C2022.61 277.272 2025.52 270.135 2031.33 264.394C2037.22 258.654 2044.81 255.784 2054.1 255.784C2058.18 255.784 2063.13 256.653 2068.95 258.39C2072.8 259.523 2075.37 260.089 2076.65 260.089C2077.86 260.089 2078.8 259.825 2079.48 259.296C2080.16 258.768 2080.96 257.597 2081.86 255.784H2085.6Z" fill="#272626"/>
</svg>
