<?xml version="1.0" encoding="UTF-8"?>
<svg id="Layer_1" data-name="Layer 1" xmlns="http://www.w3.org/2000/svg" version="1.1" viewBox="0 0 1981.42 1110.51">
  <defs>
    <style>
      .cls-1 {
        fill: #ff6605;
      }

      .cls-1, .cls-2 {
        stroke-width: 0px;
      }

      .cls-2 {
        fill: #fff;
      }
    </style>
  </defs>
  <path class="cls-2" d="M1619.08,826.86h26.5v-125.78c0-39.54,21.03-73.61,64.57-73.61,34.7,0,54.05,22.51,54.05,58.47v140.92h26.5v-148.7c0-49.43-30.92-74.25-75.09-74.25s-62.68,25.87-68.78,45.01h-1.26v-41.43h-26.5v219.37ZM1533.61,540.61c0,11.78,9.26,20.82,21.03,20.82s21.24-9.04,21.24-20.82c0-12.41-9.04-21.24-21.24-21.24s-21.03,8.83-21.03,21.24M1541.6,826.86h26.29v-219.37h-26.29v219.37ZM1352.85,702.35v-3.15c0-44.17,24.4-71.72,61.2-71.72s60.99,27.55,60.99,71.72v3.15h-122.2ZM1416.58,830.44c53.42,0,78.87-33.44,82.03-56.16h-27.97c-3.36,15.56-22.08,32.6-54.05,32.6-40.8,0-63.73-29.03-63.73-71.72v-11.78h148.91v-21.45c0-61.63-36.39-98.01-87.71-98.01s-87.71,36.39-87.71,98.01v31.76c0,59.52,33.23,96.75,90.23,96.75M1225.31,607.49h-37.02v22.29h37.02v139.66c0,41.22,11.15,58.89,59.1,58.89,7.57,0,21.45-1.05,24.82-1.68v-22.08c-3.57.42-13.46,1.05-19.35,1.05-27.97,0-38.07-7.15-38.07-34.07v-141.76h54.05v-22.29h-54.05v-54.48h-26.5v54.48ZM1022.05,667.01c0,40.8,31.55,51.11,73.4,60.36,31.55,6.73,58.68,12.83,58.68,40.38,0,24.4-20.4,40.38-56.37,40.38-38.49,0-52.79-18.09-54.9-37.65h-26.08c0,34.49,29.03,59.94,80.14,59.94,47.53,0,83.5-22.51,83.5-65.62s-35.34-52.37-76.35-60.79c-29.66-6.31-55.74-12.41-55.74-39.54,0-25.03,21.87-38.28,50.27-38.28,35.97,0,50.69,21.03,51.53,37.02h25.24c0-31.34-26.29-59.31-75.93-59.31-41.65,0-77.4,20.19-77.4,63.1M815.84,826.86h26.5v-125.78c0-39.54,21.03-73.61,64.57-73.61,34.7,0,54.05,22.51,54.05,58.47v140.92h26.5v-148.7c0-49.43-30.92-74.25-75.09-74.25s-62.68,25.87-68.78,45.01h-1.26v-41.43h-26.5v219.37Z"/>
  <rect class="cls-2" x="738.36" y="607.49" width="26.29" height="219.37"/>
  <path class="cls-2" d="M697.26,802.46h-140.5v-110.21h132.93v-24.19h-132.93v-103.27h140.5v-24.61h-167.42v286.68h167.42v-24.4ZM190.71,826.86h26.5v-140.92c0-33.02,20.61-58.47,53.84-58.47s51.95,21.66,51.95,54.48v144.91h26.29v-141.97c0-31.55,21.87-57.42,54.68-57.42s51.11,19.98,51.11,53v146.39h26.5v-153.33c0-45.64-28.39-69.62-71.93-69.62-39.12,0-59.52,23.14-66.88,43.33h-1.26c-6.52-23.77-27.55-43.33-62.68-43.33-40.59,0-55.32,23.98-60.36,39.54h-1.26v-35.97h-26.5v219.37Z"/>
  <path class="cls-1" d="M770.43,303.98c1.28,33.46-24.8,61.63-58.26,62.91-33.46,1.29-61.63-24.8-62.92-58.26s24.8-61.63,58.26-62.91c33.46-1.29,61.63,24.8,62.92,58.26"/>
  <path class="cls-1" d="M726.53,364.6c-58.29,16.68-55.07,48.21-48.28,71.93l-36.08-14.57c21.36-12.36,45.56-32.81,15.19-85.29l69.16,27.92Z"/>
  <path class="cls-1" d="M560.37,263.22c24.57,22.75,26.04,61.12,3.29,85.68-22.75,24.57-61.12,26.04-85.69,3.29-24.57-22.75-26.04-61.11-3.29-85.68,22.75-24.57,61.12-26.04,85.69-3.29"/>
  <path class="cls-1" d="M572.19,337.13c-29.42,53.02-4.85,73.03,16.72,85.01l-35.81,15.21c6.36-23.84,9.02-55.42-49.57-71.06l68.65-29.16Z"/>
  <path class="cls-1" d="M383.01,382.94c33.46-1.29,61.63,24.8,62.91,58.26,1.29,33.46-24.8,61.63-58.26,62.92-33.46,1.29-61.63-24.8-62.91-58.26-1.29-33.46,24.8-61.63,58.26-62.91"/>
  <path class="cls-1" d="M443.63,426.85c16.68,58.29,48.21,55.07,71.93,48.28l-14.57,36.08c-12.36-21.35-32.81-45.56-85.29-15.19l27.92-69.16Z"/>
  <path class="cls-1" d="M795.1,573.28c-19.93,8.99-43.37.12-52.35-19.81-8.99-19.93-.11-43.36,19.82-52.35,19.93-8.99,43.37-.11,52.35,19.81,8.98,19.93.11,43.37-19.82,52.35"/>
  <path class="cls-1" d="M768.24,436.2c-7.74,20.44-30.58,30.75-51.03,23.01-20.44-7.74-30.74-30.59-23.01-51.03,7.74-20.44,30.58-30.74,51.03-23.01,20.44,7.74,30.74,30.58,23,51.03"/>
  <path class="cls-1" d="M652.32,358.27c8.98,19.93.11,43.37-19.82,52.35-19.92,8.99-43.36.11-52.35-19.82-8.98-19.93-.11-43.36,19.81-52.35,19.93-8.98,43.37-.11,52.35,19.82"/>
  <path class="cls-1" d="M437.3,501.06c19.93-8.98,43.36-.11,52.35,19.82,8.99,19.92.11,43.36-19.82,52.35-19.93,8.98-43.37.11-52.35-19.82-8.99-19.93-.11-43.37,19.81-52.35"/>
  <path class="cls-1" d="M515.23,385.13c20.44,7.74,30.74,30.59,23.01,51.03-7.74,20.44-30.59,30.74-51.03,23-20.45-7.74-30.74-30.58-23.01-51.03,7.74-20.44,30.59-30.74,51.03-23.01"/>
  <path class="cls-1" d="M886.86,395.65c-24.57-22.75-62.93-21.28-85.68,3.29-6.96,7.52-11.63,16.33-14.08,25.58v-.02c-15.64,58.58-47.23,55.93-71.07,49.57l.05.12c-8.55-2.3-18.03-.02-24.48,6.91-9.28,9.97-8.72,25.59,1.26,34.87,9.98,9.28,25.59,8.72,34.87-1.26,1.41-1.52,2.51-3.19,3.47-4.92l.04.09c11.97-21.57,31.99-46.15,85.01-16.73l-.03-.08c23.86,13.3,54.56,9.2,73.94-11.74,22.75-24.57,21.28-62.93-3.29-85.68"/>
  <path class="cls-1" d="M679.19,442.43c.49,13.62-10.15,25.05-23.77,25.54-13.62.49-25.05-10.15-25.55-23.77-.49-13.62,10.15-25.05,23.77-25.55,13.62-.49,25.06,10.15,25.55,23.77"/>
  <path class="cls-1" d="M521.46,474.19c13.62-.49,25.05,10.15,25.54,23.77.49,13.62-10.15,25.05-23.77,25.55-13.62.49-25.05-10.15-25.54-23.76-.49-13.62,10.15-25.06,23.77-25.55"/>
  <path class="cls-1" d="M593.74,425.64c9.98,9.28,10.54,24.89,1.26,34.87-9.28,9.98-24.89,10.54-34.87,1.26-9.98-9.28-10.54-24.89-1.26-34.87,9.28-9.97,24.89-10.54,34.87-1.26"/>
  <path class="cls-1" d="M871.67,328.72c7.09-18.73-2.43-39.85-21.16-46.94-18.74-7.09-39.84,2.43-46.93,21.17-7.09,18.73,2.43,39.85,21.16,46.94,18.73,7.09,39.85-2.44,46.94-21.17"/>
  <path class="cls-1" d="M647.42,213.14c-8.23-18.26-29.9-26.46-48.16-18.22-18.25,8.23-26.45,29.89-18.22,48.15,8.23,18.26,29.9,26.46,48.16,18.23,18.26-8.23,26.46-29.89,18.23-48.15"/>
  <path class="cls-1" d="M407.76,281.71c-18.73-7.09-39.85,2.43-46.94,21.16-7.09,18.73,2.43,39.84,21.17,46.93,18.73,7.09,39.85-2.43,46.94-21.16,7.09-18.73-2.44-39.85-21.16-46.94"/>
  <path class="cls-2" d="M1772.26,936.97c0,5.48,4.1,8.74,9.18,8.74s9.27-3.25,9.27-8.74-4.06-8.83-9.27-8.83-9.18,3.3-9.18,8.83M1747.26,936.97c0,5.48,4.1,8.74,9.18,8.74s9.27-3.25,9.27-8.74-4.06-8.83-9.27-8.83-9.18,3.3-9.18,8.83M1722.26,936.97c0,5.48,4.1,8.74,9.18,8.74s9.27-3.25,9.27-8.74-4.06-8.83-9.27-8.83-9.18,3.3-9.18,8.83M1668.12,944.72h15.6l4.68-26.74c1.11-6.51,3.92-9.85,8.6-9.85,3.16,0,5.84,2.18,5.84,6.46,0,1.11-.18,3.08-.4,4.37l-4.46,25.76h15.51l4.46-25.01c.45-2.5,1.03-6.02,1.03-9.14,0-8.43-5.3-14.31-14.31-14.31-7.18,0-11.32,3.74-13.42,7.8h-.8l1.29-7.09h-15.24l-8.38,47.74ZM1652.48,883.79c0,4.19,3.21,7.13,8.74,7.13s9.49-2.99,9.49-7.67c0-4.19-3.12-7.18-8.74-7.18s-9.49,3.03-9.49,7.71M1643.21,944.72h15.47l8.51-47.74h-15.51l-8.47,47.74ZM1609.39,929.88c0-2.99,2.36-5.22,6.64-5.22h6.69l-.85,4.86c-.62,3.16-3.74,5.3-7.04,5.3-3.12,0-5.44-1.96-5.44-4.95M1608.09,945.39c6.6,0,10.52-3.34,12.17-6.69h.76l-1.11,6.02h14.4l5.04-28.35c.22-1.43.4-2.99.4-3.97,0-10.65-7.85-16.31-19.7-16.31-13.86,0-20.19,7.62-21.13,15.02h14.49c.49-2.36,2.58-3.92,5.7-3.92,3.61,0,5.71,2.09,5.71,4.81,0,.4-.04.94-.09,1.25l-.58,3.39h-10.52c-11.1,0-19.39,4.68-19.61,14.66v.49c0,8.69,6.15,13.59,14.08,13.59M1557.47,944.72h15.47l4.15-23.54c1.2-6.86,4.14-11.77,11.1-11.77,2.45,0,5.3.8,6.51,1.47l2.72-13.33c-.67-.36-2.67-1.29-5.93-1.29-6.37,0-10.21,4.1-11.54,8.47h-.8l1.38-7.76h-14.66l-8.38,47.74ZM1523.11,924.98c0-.89.13-2.23.31-3.08l.58-3.48c1.07-6.24,4.24-9.94,8.78-9.94,4.28,0,6.64,3.21,6.64,7.58,0,.94-.04,2.99-.22,4.01l-.67,3.52c-1.11,6.15-4.14,9.67-8.6,9.67s-6.82-3.7-6.82-8.29M1534.66,945.39c10.16,0,17.25-6.95,19.57-20.28l.71-4.01c.45-2.5.62-5.04.62-6.91,0-10.65-5.84-17.7-15.24-17.7-8.16,0-12.08,5.39-13.55,9.45h-.8l4.55-25.09h-15.56l-11.28,63.87h15.47l1.56-8.69h.62c1.16,5.8,6.6,9.36,13.33,9.36M1490.32,896.98h-15.42l-11.37,34.19h-.62l-1.38-34.19h-14.53l-12.57,34.19h-.62l-.04-34.19h-15.24l4.28,47.74h16.54l12.12-31.92h.58l1.78,31.92h16.49l20.01-47.74ZM1366.69,918.91c-.4,1.96-.49,4.1-.49,6.02,0,13.59,10.16,20.46,22.69,20.46,13.73,0,21.98-8.16,24.29-19.21l.71-3.57c.4-2,.45-4.06.45-5.84,0-13.64-10.03-20.68-22.82-20.68s-22.06,8.07-24.16,19.21l-.67,3.61ZM1383.09,917.53c.89-5.66,3.57-9.85,8.51-9.85,4.59,0,6.86,3.52,6.86,7.89,0,1.07-.13,2.85-.31,3.92l-.67,4.37c-.85,5.57-3.48,9.99-8.42,9.99s-7-3.74-7-8.2c0-1.29.18-2.67.36-3.83l.67-4.28ZM1344.45,916.33c0,.67-.04,2.5-.22,3.57l-.62,3.43c-1.16,6.46-4.28,9.98-8.74,9.98-4.72,0-6.77-3.83-6.77-8.11,0-1.2.13-2.72.27-3.48l.67-3.52c1.11-6.02,4.14-9.72,8.69-9.72,3.92,0,6.73,3.08,6.73,7.85M1332.69,896.49c-9.99,0-17.12,7.27-19.52,20.33l-.76,3.92c-.45,2.5-.58,5.04-.58,6.82,0,10.74,5.62,17.83,15.33,17.83,7.44,0,11.86-4.37,13.28-8.25h.8l-1.34,7.58h15.56l11.19-63.87h-15.6l-4.5,25.5h-.67c-.67-4.77-5.17-9.85-13.19-9.85M1276.98,929.88c0-2.99,2.36-5.22,6.64-5.22h6.69l-.85,4.86c-.62,3.16-3.74,5.3-7.04,5.3-3.12,0-5.44-1.96-5.44-4.95M1275.69,945.39c6.6,0,10.52-3.34,12.17-6.69h.76l-1.11,6.02h14.4l5.04-28.35c.22-1.43.4-2.99.4-3.97,0-10.65-7.85-16.31-19.7-16.31-13.86,0-20.19,7.62-21.13,15.02h14.49c.49-2.36,2.58-3.92,5.7-3.92,3.61,0,5.71,2.09,5.71,4.81,0,.4-.04.94-.09,1.25l-.58,3.39h-10.52c-11.1,0-19.39,4.68-19.61,14.66v.49c0,8.69,6.15,13.59,14.09,13.59M1207.05,944.72h15.55l4.72-26.74c1.07-6.02,3.97-9.85,8.78-9.85,3.16,0,5.97,2.18,5.97,6.42,0,1.16-.18,3.12-.4,4.41l-4.46,25.76h15.51l4.46-25.01c.45-2.5,1.07-6.02,1.07-9.14,0-8.43-5.57-14.31-14.53-14.31-7.09,0-11.23,3.7-13.28,7.8h-.8l4.14-23.22h-15.55l-11.19,63.87ZM1165.07,911.6c0,9.49,8.25,12.66,14.04,14.4,4.99,1.56,8.47,2.14,8.47,5.04,0,2.45-2.32,4.24-6.33,4.24s-7.09-1.87-7.27-5.13c-.04-.31-.04-.85,0-.98h-13.64c-.04.45-.09,1.2-.09,1.74,0,10.21,10.74,14.53,20.68,14.53,11.23,0,21.98-5.04,21.98-15.82,0-7.58-5.3-11.28-12.3-13.46-5.57-1.74-10.92-2.18-10.92-5.88,0-2.23,1.96-4.15,5.75-4.15,4.15,0,6.51,2.27,6.51,4.5,0,.18,0,.71-.05.85h13.24c.09-.27.09-1.16.09-1.65,0-8.16-8.29-13.77-20.15-13.77-13.28,0-20.01,6.73-20.01,15.56M1106.08,944.72h15.47l4.14-23.54c1.2-6.86,4.15-11.77,11.1-11.77,2.45,0,5.3.8,6.51,1.47l2.72-13.33c-.67-.36-2.68-1.29-5.93-1.29-6.38,0-10.21,4.1-11.54,8.47h-.8l1.38-7.76h-14.66l-8.38,47.74ZM1105.42,896.98h-15.47l-4.72,26.7c-1.11,6.51-3.83,9.8-8.56,9.8-3.12,0-5.97-2-5.97-6.33,0-1.34.18-3.08.4-4.5l4.5-25.67h-15.51l-4.68,26.12c-.45,2.41-.8,4.99-.8,8.16,0,9.14,5.97,14.13,14.35,14.13,7.22,0,11.59-3.88,13.6-7.84h.8l-1.29,7.18h14.98l8.38-47.74ZM1002.15,918.91c-.4,1.96-.49,4.1-.49,6.02,0,13.59,10.16,20.46,22.69,20.46,13.73,0,21.98-8.16,24.29-19.21l.71-3.57c.4-2,.45-4.06.45-5.84,0-13.64-10.03-20.68-22.82-20.68s-22.06,8.07-24.16,19.21l-.67,3.61ZM1018.55,917.53c.89-5.66,3.57-9.85,8.51-9.85,4.59,0,6.86,3.52,6.86,7.89,0,1.07-.13,2.85-.31,3.92l-.67,4.37c-.85,5.57-3.48,9.99-8.42,9.99s-7-3.74-7-8.2c0-1.29.18-2.67.36-3.83l.67-4.28ZM984.2,924.04l27.46-40.12h-17.03l-15.56,25.01h-.67l-6.55-25.01h-17.16l13.46,40.61-3.56,20.19h16l3.61-20.68Z"/>
</svg>